<svg xmlns="http://www.w3.org/2000/svg" enable-background="new 0 0 64 64" viewBox="0 0 64 64" id="HerbalTea"><path fill="none" stroke="#4d8b55" stroke-linecap="round" stroke-linejoin="round" stroke-miterlimit="10" stroke-width="2" d="M50.62 29.13v7.39c0 1.23-.14 2.42-.4 3.56v.01M48.87 43.79c-.53 1.04-1.17 2.01-1.91 2.91h-.01c-2.92 3.53-7.35 5.79-12.3 5.79H24.52c-4.95 0-9.39-2.26-12.31-5.8-2.28-2.76-3.66-6.31-3.66-10.18v-9.65-3.5h21.56 5.16 3.6 6.5 5.25v2.47" class="colorStroke231f20 svgStroke"></path><path fill="none" stroke="#4d8b55" stroke-linecap="round" stroke-linejoin="round" stroke-miterlimit="10" stroke-width="2" d="M46.95 46.7L46.95 46.7c4.11 1.24 6.62 2.89 6.62 4.74 0 3.78-10.74 6.86-23.99 6.86-13.25 0-23.99-3.08-23.99-6.86 0-1.84 2.51-3.51 6.61-4.75M35.26 23.37c0 0 1.29-11.19 17.63-12.88 0 0 1.49 8.62-7.53 12.88" class="colorStroke231f20 svgStroke"></path><path fill="none" stroke="#4d8b55" stroke-linecap="round" stroke-linejoin="round" stroke-miterlimit="10" stroke-width="2" d="M30.11,23.37c0,0-2.71-10.76,8.06-16.64c0,0,3.3,3.1,1.44,9.05" class="colorStroke231f20 svgStroke"></path><line x1="45.16" x2="38.87" y1="17.57" y2="23.37" fill="none" stroke="#4d8b55" stroke-linecap="round" stroke-linejoin="round" stroke-miterlimit="10" stroke-width="2" class="colorStroke231f20 svgStroke"></line><path fill="none" stroke="#4d8b55" stroke-linecap="round" stroke-linejoin="round" stroke-miterlimit="10" stroke-width="2" d="M35.8 15.04c0 0-1.83 4.16-.54 8.32M17.61 5.7c0 0-2.71 2.45-.03 6.41 2.67 3.96 1.52 6.41 1.52 6.41M25.83 11.9c0 0-1.69.69-1.11 3.01s-.38 3.27-.38 3.27M11.45 12.34c0 0-.91 1.59.98 3.05 1.89 1.47 1.72 2.81 1.72 2.81" class="colorStroke231f20 svgStroke"></path><line x1="8.54" x2="42.92" y1="26.87" y2="26.87" fill="none" stroke="#4d8b55" stroke-linecap="round" stroke-linejoin="round" stroke-miterlimit="10" stroke-width="2" class="colorStroke231f20 svgStroke"></line><path fill="none" stroke="#4d8b55" stroke-linecap="round" stroke-linejoin="round" stroke-miterlimit="10" stroke-width="2" d="M47.27,25.83h6.66c2.49,0,4.5,2.03,4.48,4.52l-0.07,7.5c-0.02,2.01-1.37,3.76-3.31,4.28l-8.39,2.26" class="colorStroke231f20 svgStroke"></path><path fill="none" stroke="#4d8b55" stroke-linecap="round" stroke-linejoin="round" stroke-miterlimit="10" stroke-width="2" d="M47.14,29.13h6.45c0.94,0,1.69,0.76,1.69,1.69v6.75c0,0.79-0.55,1.48-1.32,1.65l-7.33,1.66" class="colorStroke231f20 svgStroke"></path></svg>