<svg xmlns="http://www.w3.org/2000/svg" enable-background="new 0 0 48 48" viewBox="0 0 48 48" id="CoffeeIce"><path d="M28.001 44h-8c-3.309 0-6-2.691-6-6V27c0-.552.448-1 1-1h18c.553 0 1 .448 1 1v11C34.001 41.309 31.31 44 28.001 44zM16.001 28v10c0 2.206 1.794 4 4 4h8c2.206 0 4-1.794 4-4V28H16.001zM33 48H15c-.552 0-1-.448-1-1s.448-1 1-1h18c.553 0 1 .448 1 1S33.553 48 33 48zM25.001 24c-.552 0-1-.448-1-1v-6l-1 0h0c-.552 0-1-.447-1-.999 0-.553.447-1 1-1.001l2-.001h.001c.265 0 .52.105.707.292.188.188.293.442.293.708V23C26.001 23.552 25.554 24 25.001 24zM19.001 24c-.552 0-1-.448-1-1v-6l-1 0h0c-.552 0-1-.447-1-.999 0-.553.447-1 1-1.001l2-.001h0c.265 0 .52.105.707.292.188.188.293.442.293.708V23C20.001 23.552 19.553 24 19.001 24zM31.001 24c-.553 0-1-.448-1-1v-6l-.999 0h-.001c-.552 0-1-.447-1-.999 0-.553.447-1 .999-1.001l2-.001h.001c.265 0 .52.105.707.292.188.188.293.442.293.708V23C32.001 23.552 31.554 24 31.001 24zM21 8h-6c-.552 0-1-.448-1-1V1c0-.552.448-1 1-1h6c.552 0 1 .448 1 1v6C22 7.552 21.552 8 21 8zM16 6h4V2h-4V6zM11 48H5c-.552 0-1-.448-1-1v-6c0-.552.448-1 1-1h6c.552 0 1 .448 1 1v6C12 47.552 11.552 48 11 48zM6 46h4v-4H6V46zM11 38H5c-.552 0-1-.448-1-1v-6c0-.552.448-1 1-1h6c.552 0 1 .448 1 1v6C12 37.552 11.552 38 11 38zM6 36h4v-4H6V36zM43 48h-6c-.553 0-1-.448-1-1v-6c0-.552.447-1 1-1h6c.553 0 1 .448 1 1v6C44 47.552 43.553 48 43 48zM38 46h4v-4h-4V46zM43 38h-6c-.553 0-1-.448-1-1v-6c0-.552.447-1 1-1h6c.553 0 1 .448 1 1v6C44 37.552 43.553 38 43 38zM38 36h4v-4h-4V36zM31 13h-6c-.552 0-1-.448-1-1V6c0-.552.448-1 1-1h6c.553 0 1 .448 1 1v6C32 12.552 31.553 13 31 13zM26 11h4V7h-4V11z" fill="#4d8b55" class="color000000 svgShape"></path></svg>