<svg xmlns="http://www.w3.org/2000/svg" data-name="Layer 1" viewBox="0 0 512 512" id="coffee"><path d="M198.05,472.72a250.51,250.51,0,0,1-50.25-5.2h0C104.55,458.66,66,439.4,39.29,413.3c-27.67-27-39.56-58.23-33.48-87.86s29.28-53.64,65.36-67.59c34.84-13.48,77.84-16,121.09-7.15S274,278.82,300.77,304.92c27.67,27,39.56,58.23,33.48,87.87S305,446.42,268.89,460.38C247.71,468.57,223.5,472.72,198.05,472.72Zm-47-21.1c40.24,8.24,80,6,112-6.39,30.74-11.89,50.39-31.67,55.31-55.71s-5.34-49.95-28.92-73c-24.52-24-60.19-41.68-100.42-49.93s-80-6-112,6.38c-30.74,11.89-50.39,31.68-55.31,55.71s5.34,49.95,28.92,73c24.52,23.95,60.19,41.69,100.42,49.94Z"></path><path d="M326.3 399.27a8.1 8.1 0 01-6-2.67c-.11-.12-12.55-13.55-36.85-24.4-22.39-10-59.8-19.81-110.87-9.77C58.47 384.85 9.86 334.77 7.84 332.63a8.12 8.12 0 0111.81-11.15c.22.22 11.35 11.56 35 20.26 22.09 8.12 59.93 15.53 114.75 4.75 55.71-10.95 96.82.09 121.49 11.27C318 370 331.75 385.08 332.33 385.71a8.12 8.12 0 01-6 13.56zM421.65 359.93c-20 0-41.33-7.23-62.24-21.41-30.91-21-57.48-54.88-74.81-95.48h0c-17.33-40.61-23.44-83.25-17.19-120.08 6.46-38.14 25.34-65.68 53.17-77.55S381.35 39 413.35 60.66c30.92 21 57.49 54.88 74.82 95.49s23.44 83.25 17.19 120.08c-6.46 38.13-25.35 65.67-53.17 77.54A77.24 77.24 0 01421.65 359.93zM299.54 236.66c16.12 37.77 40.62 69.18 69 88.42 27.28 18.5 54.72 23.39 77.29 13.76s38-32.83 43.53-65.33c5.73-33.8 0-73.21-16.12-111s-40.62-69.17-69-88.42C377 55.6 349.51 50.71 327 60.34s-38 32.84-43.53 65.33c-5.73 33.8 0 73.22 16.12 111z"></path><path d="M449,354.43a7.94,7.94,0,0,1-1.86-.22,8.11,8.11,0,0,1-6-9.76c0-.15,4-18-.92-44.19-4.53-24.1-17.76-60.44-55.09-96.71-83.38-81-69.88-149.5-69.27-152.37a8.12,8.12,0,0,1,15.89,3.36c-.06.34-3,15.94,3.28,40.33,5.91,22.78,21.35,58.1,61.42,97,40.72,39.57,55,79.65,59.9,106.3,5.32,29.26.8,49.13.6,50A8.13,8.13,0,0,1,449,354.43Z"></path></svg>