<svg xmlns="http://www.w3.org/2000/svg" viewBox="0 0 64 64" id="HerbalMedicine"><g data-name="Outline" fill="#4d8b55" class="color000000 svgShape"><path d="M59.949 2.49A5.154 5.154 0 0 0 53 4.191L39.785 25h-4.616c3.02-6.317 0-16.614-.136-17.068a1 1 0 0 0-1.153-.694c-.4.08-9.349 1.916-14.021 6.588-5.3-4.72-16.4-4.257-16.887-4.235a1 1 0 0 0-.952.952c-.019.4-.38 9.115 2.778 14.8A4.483 4.483 0 0 0 6.1 33.96c1.211 11.632 8.236 20.663 9.682 22.406V59a3.094 3.094 0 0 0 3.174 3h26.087a3.094 3.094 0 0 0 3.174-3v-2.634c1.446-1.743 8.471-10.774 9.682-22.406A4.488 4.488 0 0 0 57.5 25h-3.79l8.223-15.634a5.155 5.155 0 0 0-1.984-6.876ZM33.358 9.41c.686 2.753 2.442 11.136-.475 15.59h-7.735l4.719-7.844a1 1 0 1 0-1.714-1.031l-3.98 6.616a10.949 10.949 0 0 0-2.936-7.472C24.647 11.824 31 9.994 33.358 9.41ZM4.049 11.573c2.841 0 11.09.333 14.793 4.036 3.1 3.1 4.076 6.413 2.791 9.391h-2.789l-8.167-8.167a1 1 0 1 0-1.414 1.414L16.016 25H6.928C4.258 20.879 4 14.055 4 11.573ZM45.043 60H18.957a1.1 1.1 0 0 1-1.174-1v-2h28.434v2a1.1 1.1 0 0 1-1.174 1Zm1.7-5h-29.49C15.817 53.228 9.3 44.669 8.1 34h47.8c-1.2 10.669-7.717 19.228-9.153 21ZM60 29.5a2.5 2.5 0 0 1-2.5 2.5h-51a2.5 2.5 0 0 1 0-5h51a2.5 2.5 0 0 1 2.5 2.5Zm.162-21.065L51.45 25h-9.3L54.687 5.264a3.166 3.166 0 0 1 5.475 3.171Z" fill="#4d8b55" class="color000000 svgShape"></path><path d="M14.369 42.238a34.827 34.827 0 0 1-1.744-5.46 1 1 0 0 0-1.951.444A36.978 36.978 0 0 0 12.518 43a1 1 0 1 0 1.851-.758Z" fill="#4d8b55" class="color000000 svgShape"></path><circle cx="15" cy="46" r="1" fill="#4d8b55" class="color000000 svgShape"></circle></g></svg>